<svg width="23" height="26" viewBox="0 0 42 44" fill="none" xmlns="http://www.w3.org/2000/svg">
<path d="M33 2V6M9 2V6" stroke="#141B34" stroke-width="3" stroke-linecap="round" stroke-linejoin="round"/>
<path d="M20.991 24H21.009M20.991 32H21.009M28.9821 24H29M13 24H13.0179M13 32H13.0179" stroke="#141B34" stroke-width="4" stroke-linecap="round" stroke-linejoin="round"/>
<path d="M4 14H38" stroke="#141B34" stroke-width="3" stroke-linecap="round" stroke-linejoin="round"/>
<path d="M2 22.4865C2 13.7719 2 9.41457 4.50424 6.70728C7.00847 4 11.039 4 19.1 4H22.9C30.961 4 34.9915 4 37.4958 6.70728C40 9.41457 40 13.7719 40 22.4865V23.5135C40 32.2281 40 36.5854 37.4958 39.2927C34.9915 42 30.961 42 22.9 42H19.1C11.039 42 7.00847 42 4.50424 39.2927C2 36.5854 2 32.2281 2 23.5135V22.4865Z" stroke="#141B34" stroke-width="3" stroke-linecap="round" stroke-linejoin="round"/>
<path d="M3 14H39" stroke="#141B34" stroke-width="3" stroke-linecap="round" stroke-linejoin="round"/>
</svg>
