<svg width="21" height="22" viewBox="0 0 21 22" fill="none" xmlns="http://www.w3.org/2000/svg">
<mask id="path-1-inside-1_177_96" fill="white">
<path fill-rule="evenodd" clip-rule="evenodd" d="M9.29765 -0.00244141C8.19308 -0.00244141 7.29765 0.892989 7.29765 1.99756V4.67119C6.93145 4.84515 6.58275 5.04998 6.25491 5.2823L4.0297 3.99757C3.07311 3.44529 1.84993 3.77304 1.29765 4.72962L0.297649 6.46167C-0.254636 7.41826 0.0731137 8.64144 1.0297 9.19373L3.31418 10.5127C3.30322 10.6729 3.29765 10.8346 3.29765 10.9976C3.29765 11.1875 3.30522 11.3758 3.32007 11.5619L1.00033 12.9012C0.0437488 13.4535 -0.284002 14.6767 0.268283 15.6333L1.26828 17.3653C1.82057 18.3219 3.04375 18.6497 4.00033 18.0974L6.3198 16.7583C6.62864 16.9719 6.95551 17.1614 7.29765 17.3239V19.9976C7.29765 21.1021 8.19308 21.9976 9.29765 21.9976H11.2976C12.4022 21.9976 13.2976 21.1021 13.2976 19.9976V17.3239C13.6156 17.1729 13.9204 16.9986 14.2097 16.8032L16.6182 18.1937C17.5747 18.746 18.7979 18.4183 19.3502 17.4617L20.3502 15.7296C20.9025 14.773 20.5747 13.5499 19.6182 12.9976L17.2685 11.641C17.2878 11.4291 17.2976 11.2145 17.2976 10.9976C17.2976 10.8076 17.2901 10.6193 17.2752 10.4331L19.5888 9.0974C20.5454 8.54511 20.8731 7.32193 20.3208 6.36535L19.3208 4.6333C18.7686 3.67671 17.5454 3.34896 16.5888 3.90124L14.2755 5.23684C13.9666 5.02318 13.6398 4.83372 13.2976 4.67119V1.99756C13.2976 0.892989 12.4022 -0.00244141 11.2976 -0.00244141H9.29765Z"/>
</mask>
<path d="M7.29765 4.67119L7.94129 6.02608L8.79765 5.61927V4.67119H7.29765ZM6.25491 5.2823L5.50491 6.58134L6.33765 7.06212L7.12219 6.50615L6.25491 5.2823ZM4.0297 3.99757L3.2797 5.29661L3.2797 5.29661L4.0297 3.99757ZM1.29765 4.72962L-0.00138938 3.97962L-0.0013894 3.97962L1.29765 4.72962ZM0.297649 6.46167L-1.00139 5.71167L-1.00139 5.71167L0.297649 6.46167ZM1.0297 9.19373L0.279698 10.4928L0.279699 10.4928L1.0297 9.19373ZM3.31418 10.5127L4.81068 10.6151L4.87455 9.6815L4.06418 9.21363L3.31418 10.5127ZM3.32007 11.5619L4.07007 12.861L4.89068 12.3872L4.81532 11.4426L3.32007 11.5619ZM1.00033 12.9012L1.75033 14.2003L1.75033 14.2003L1.00033 12.9012ZM0.268283 15.6333L-1.03076 16.3833L-1.03075 16.3833L0.268283 15.6333ZM1.26828 17.3653L-0.0307549 18.1153L-0.0307548 18.1153L1.26828 17.3653ZM4.00033 18.0974L3.25033 16.7984L3.25033 16.7984L4.00033 18.0974ZM6.3198 16.7583L7.17321 15.5247L6.39223 14.9844L5.5698 15.4592L6.3198 16.7583ZM7.29765 17.3239H8.79765V16.3758L7.94128 15.969L7.29765 17.3239ZM13.2976 17.3239L12.654 15.969L11.7976 16.3758V17.3239H13.2976ZM14.2097 16.8032L14.9597 15.5042L14.1476 15.0353L13.3704 15.56L14.2097 16.8032ZM16.6182 18.1937L15.8682 19.4928L15.8682 19.4928L16.6182 18.1937ZM19.3502 17.4617L20.6492 18.2117L19.3502 17.4617ZM20.3502 15.7296L19.0512 14.9796L20.3502 15.7296ZM19.6182 12.9976L18.8682 14.2966L18.8682 14.2966L19.6182 12.9976ZM17.2685 11.641L15.7747 11.5048L15.6876 12.4603L16.5185 12.94L17.2685 11.641ZM17.2752 10.4331L16.5252 9.1341L15.7046 9.60788L15.78 10.5524L17.2752 10.4331ZM19.5888 9.0974L20.3388 10.3964L20.3388 10.3964L19.5888 9.0974ZM20.3208 6.36535L21.6199 5.61535L21.6199 5.61535L20.3208 6.36535ZM19.3208 4.6333L18.0218 5.3833L18.0218 5.3833L19.3208 4.6333ZM16.5888 3.90124L17.3388 5.20028L17.3388 5.20028L16.5888 3.90124ZM14.2755 5.23684L13.4221 6.47041L14.203 7.01071L15.0255 6.53588L14.2755 5.23684ZM13.2976 4.67119H11.7976V5.61927L12.654 6.02608L13.2976 4.67119ZM8.79765 1.99756C8.79765 1.72142 9.02151 1.49756 9.29765 1.49756V-1.50244C7.36465 -1.50244 5.79765 0.0645603 5.79765 1.99756H8.79765ZM8.79765 4.67119V1.99756H5.79765V4.67119H8.79765ZM7.12219 6.50615C7.37999 6.32347 7.65392 6.16259 7.94129 6.02608L6.65401 3.3163C6.20897 3.52771 5.78551 3.77649 5.38763 4.05844L7.12219 6.50615ZM3.2797 5.29661L5.50491 6.58134L7.00491 3.98326L4.7797 2.69854L3.2797 5.29661ZM2.59669 5.47962C2.73476 5.24048 3.04055 5.15854 3.2797 5.29661L4.7797 2.69854C3.10568 1.73204 0.965109 2.3056 -0.00138939 3.97962L2.59669 5.47962ZM1.59669 7.21167L2.59669 5.47962L-0.0013894 3.97962L-1.00139 5.71167L1.59669 7.21167ZM1.7797 7.89469C1.54055 7.75662 1.45862 7.45082 1.59669 7.21167L-1.00139 5.71167C-1.96789 7.3857 -1.39433 9.52626 0.279698 10.4928L1.7797 7.89469ZM4.06418 9.21363L1.7797 7.89469L0.279699 10.4928L2.56418 11.8117L4.06418 9.21363ZM4.79765 10.9976C4.79765 10.8688 4.80205 10.7412 4.81068 10.6151L1.81768 10.4103C1.80439 10.6045 1.79765 10.8004 1.79765 10.9976H4.79765ZM4.81532 11.4426C4.80363 11.2961 4.79765 11.1477 4.79765 10.9976H1.79765C1.79765 11.2274 1.80681 11.4554 1.82482 11.6812L4.81532 11.4426ZM1.75033 14.2003L4.07007 12.861L2.57007 10.2629L0.250334 11.6022L1.75033 14.2003ZM1.56732 14.8833C1.42925 14.6441 1.51119 14.3384 1.75033 14.2003L0.250334 11.6022C-1.42369 12.5687 -1.99725 14.7093 -1.03076 16.3833L1.56732 14.8833ZM2.56732 16.6153L1.56732 14.8833L-1.03075 16.3833L-0.0307549 18.1153L2.56732 16.6153ZM3.25033 16.7984C3.01119 16.9364 2.70539 16.8545 2.56732 16.6153L-0.0307548 18.1153C0.935743 19.7894 3.07631 20.3629 4.75033 19.3964L3.25033 16.7984ZM5.5698 15.4592L3.25033 16.7984L4.75033 19.3964L7.0698 18.0573L5.5698 15.4592ZM7.94128 15.969C7.6728 15.8415 7.41604 15.6927 7.17321 15.5247L5.46638 17.9918C5.84125 18.2512 6.23822 18.4813 6.65401 18.6788L7.94128 15.969ZM8.79765 19.9976V17.3239H5.79765V19.9976H8.79765ZM9.29765 20.4976C9.02151 20.4976 8.79765 20.2737 8.79765 19.9976H5.79765C5.79765 21.9306 7.36465 23.4976 9.29765 23.4976V20.4976ZM11.2976 20.4976H9.29765V23.4976H11.2976V20.4976ZM11.7976 19.9976C11.7976 20.2737 11.5738 20.4976 11.2976 20.4976V23.4976C13.2306 23.4976 14.7976 21.9306 14.7976 19.9976H11.7976ZM11.7976 17.3239V19.9976H14.7976V17.3239H11.7976ZM13.3704 15.56C13.1429 15.7136 12.9035 15.8505 12.654 15.969L13.9413 18.6788C14.3277 18.4953 14.6978 18.2835 15.0491 18.0464L13.3704 15.56ZM17.3682 16.8947L14.9597 15.5042L13.4597 18.1023L15.8682 19.4928L17.3682 16.8947ZM18.0512 16.7117C17.9131 16.9508 17.6073 17.0328 17.3682 16.8947L15.8682 19.4928C17.5422 20.4593 19.6827 19.8857 20.6492 18.2117L18.0512 16.7117ZM19.0512 14.9796L18.0512 16.7117L20.6492 18.2117L21.6492 16.4796L19.0512 14.9796ZM18.8682 14.2966C19.1073 14.4347 19.1892 14.7405 19.0512 14.9796L21.6492 16.4796C22.6157 14.8056 22.0422 12.665 20.3682 11.6985L18.8682 14.2966ZM16.5185 12.94L18.8682 14.2966L20.3682 11.6985L18.0185 10.3419L16.5185 12.94ZM15.7976 10.9976C15.7976 11.169 15.7899 11.3382 15.7747 11.5048L18.7623 11.7771C18.7857 11.52 18.7976 11.26 18.7976 10.9976H15.7976ZM15.78 10.5524C15.7917 10.699 15.7976 10.8474 15.7976 10.9976H18.7976C18.7976 10.7677 18.7885 10.5397 18.7705 10.3138L15.78 10.5524ZM18.8388 7.79836L16.5252 9.1341L18.0252 11.7322L20.3388 10.3964L18.8388 7.79836ZM19.0218 7.11535C19.1599 7.35449 19.0779 7.66029 18.8388 7.79836L20.3388 10.3964C22.0128 9.42994 22.5864 7.28937 21.6199 5.61535L19.0218 7.11535ZM18.0218 5.3833L19.0218 7.11535L21.6199 5.61535L20.6199 3.8833L18.0218 5.3833ZM17.3388 5.20028C17.5779 5.06221 17.8837 5.14415 18.0218 5.3833L20.6199 3.8833C19.6534 2.20927 17.5128 1.63571 15.8388 2.60221L17.3388 5.20028ZM15.0255 6.53588L17.3388 5.20028L15.8388 2.60221L13.5255 3.9378L15.0255 6.53588ZM12.654 6.02608C12.9225 6.15362 13.1792 6.30242 13.4221 6.47041L15.1289 4.00327C14.754 3.74394 14.3571 3.51382 13.9413 3.3163L12.654 6.02608ZM11.7976 1.99756V4.67119H14.7976V1.99756H11.7976ZM11.2976 1.49756C11.5738 1.49756 11.7976 1.72142 11.7976 1.99756H14.7976C14.7976 0.064563 13.2306 -1.50244 11.2976 -1.50244V1.49756ZM9.29765 1.49756H11.2976V-1.50244H9.29765V1.49756Z" fill="#BDC4D4" mask="url(#path-1-inside-1_177_96)"/>
</svg>
