<svg width="20" height="22" viewBox="0 0 20 22" fill="none" xmlns="http://www.w3.org/2000/svg">
<path d="M6.92308 20.9976H2C1.44772 20.9976 1 20.5498 1 19.9976V11.3813C1 11.1343 1.09144 10.896 1.25671 10.7123L9.25671 1.82344C9.65395 1.38206 10.3461 1.38206 10.7433 1.82344L18.7433 10.7123C18.9086 10.896 19 11.1343 19 11.3813V19.9976C19 20.5498 18.5523 20.9976 18 20.9976H13.0769C12.5246 20.9976 12.0769 20.5498 12.0769 19.9976V16.442C12.0769 15.8897 11.6292 15.442 11.0769 15.442H8.92308C8.37079 15.442 7.92308 15.8897 7.92308 16.442V19.9976C7.92308 20.5498 7.47536 20.9976 6.92308 20.9976Z" stroke="#BDC4D4" stroke-width="2"/>
</svg>
