<svg width="20" height="23" viewBox="0 0 20 23" fill="none" xmlns="http://www.w3.org/2000/svg">
<path d="M12.5196 19.4302C15.8359 19.4302 21.5259 18.8938 17.7558 16.7479C17.0577 16.3008 15.6613 14.2443 15.6613 9.59489C15.6613 5.05013 12.326 2.98288 10.5457 2.47455C10.4652 2.45157 10.3828 2.44189 10.2991 2.44189H9.37793" stroke="#BDC4D4" stroke-width="2"/>
<path d="M7.48036 19.4302C4.16412 19.4302 -1.52587 18.8938 2.24418 16.7479C2.94234 16.3008 4.33865 14.2443 4.33865 9.59489C4.33865 5.05013 7.67401 2.98288 9.45434 2.47455C9.53482 2.45157 9.61718 2.44189 9.70087 2.44189H10.6221" stroke="#BDC4D4" stroke-width="2"/>
<path d="M6.23633 19.4302H13.567" stroke="#BDC4D4" stroke-width="2"/>
<path d="M6.23633 19.4302C7.4581 21.3674 10.6347 24.0796 13.567 19.4302" stroke="#BDC4D4" stroke-width="2"/>
<path d="M10 2.93089V-0.00244141" stroke="#BDC4D4" stroke-width="2"/>
</svg>
